# xmcd
#
# Track frame offsets:
#	150
#	13133
#	73807
#	102987
#	114126
#	136536
#	168746
#	196464
#	231761
#	309571
#	320661
#	332369
#
# Disc length: 4584 seconds
#
# Revision: 0
# Processed by: cddbd v1.5.2PL0 Copyright (c) Steve Scherf et al.
# Submitted via: EasyCDDAExtractor 9.0.0.1
#
DISCID=a111e60c
DTITLE=Frank Zappa - Broome County Arena Binghampton 01-05-74 Disc 1
DYEAR=1974
DGENRE=Progressive Rock
TTITLE0=Band Intros
TTITLE1=Cosmik Debris
TTITLE2=Pygmy Twylyte
TTITLE3=Idiot Bastard Son
TTITLE4=Cheepnis
TTITLE5=Penguin In Bondage
TTITLE6=RDNZL
TTITLE7=Montana
TTITLE8=Dupree's Paradise
TTITLE9=It Can't Happen Here
TTITLE10=Hungry Freaks Daddy
TTITLE11=You're Probably Wondering Why I'm Here
EXTD=
EXTT0=
EXTT1=
EXTT2=
EXTT3=
EXTT4=
EXTT5=
EXTT6=
EXTT7=
EXTT8=
EXTT9=
EXTT10=
EXTT11=
PLAYORDER=
